<svg xmlns="http://www.w3.org/2000/svg" fill="#15ff00" height="2em" width="2em" viewBox="0 0 24 24">
    <g>
        <path d="M12 21c-.685 0-1.85-.082-3.065-.313-1.457-.29-2.507-.66-3.219-1.132-2.777-1.798-4.249-4.181-4.249-6.885 0-2.24.443-3.013.871-3.762l.177-.361a2.718 2.718 0 0 1-.019-.08c-.378-1.141-.506-3.028.318-4.725a.78.78 0 0 1 .091-.142c.415-.518.882-1.1 2.012-1.1.967.116 2.733.849 3.262 1.125l.033.018a4.27 4.27 0 0 0 .135-.045c.068-.023.135-.047.202-.067.83-.251 2.328-.341 3.451-.341.527 0 1.095.021 1.633.062a.75.75 0 1 1-.115 1.495c-.5-.038-1.028-.057-1.518-.057-1.237 0-2.479.114-3.021.278l-.134.045c-.283.099-.855.301-1.407-.082-.564-.283-2.052-.866-2.614-.937-.313.006-.398.106-.695.477-.59 1.275-.489 2.682-.191 3.585l.032.123c.103.414.077.576-.075.959l-.059.15a.553.553 0 0 1-.042.093l-.154.273c-.361.63-.673 1.175-.673 3.016 0 2.202 1.201 4.096 3.571 5.631.545.361 1.446.667 2.684.914 1.106.21 2.161.285 2.778.285 1.46 0 4.206-.381 5.46-1.198 2.372-1.536 3.573-3.43 3.573-5.632 0-1.37-.179-1.984-.335-2.366a.75.75 0 1 1 1.388-.568c.31.756.448 1.661.448 2.934 0 2.705-1.472 5.087-4.255 6.89C16.667 20.609 13.572 21 12 21zm9.04-13.59h-.027a.75.75 0 0 1-.723-.776 4.813 4.813 0 0 0-.419-2.164c-.305-.378-.4-.47-.788-.47-.259.035-1.096.313-1.95.671a.748.748 0 0 1-.981-.401.748.748 0 0 1 .401-.981c.386-.162 1.704-.698 2.444-.784h.016c1.206 0 1.669.579 2.042 1.043.035.044.107.144.132.195.431.891.639 1.909.603 2.943a.753.753 0 0 1-.75.724z" />
        <path d="M19.723 12.076c-.497 0-.996-.159-1.414-.458a2.472 2.472 0 0 1-.954-1.347l-.354-1.242a.75.75 0 1 1 1.443-.411l.354 1.243c.062.22.191.4.383.537.204.146.45.209.676.167a.665.665 0 0 0 .444-.279l1.1-1.605c.241-.352.112-.872-.287-1.158a.886.886 0 0 0-.605-.181l-1.267.084c-.418.015-.771-.285-.798-.699s.286-.771.699-.798l1.264-.084a2.401 2.401 0 0 1 1.581.458c1.059.758 1.351 2.205.652 3.226l-1.1 1.606a2.161 2.161 0 0 1-1.817.941zm-5.368-3.838c-.502 0-.989-.159-1.416-.464-1.058-.758-1.351-2.205-.651-3.225l1.1-1.605a2.161 2.161 0 0 1 1.422-.909 2.41 2.41 0 0 1 1.809.424c.469.335.799.801.954 1.347l.354 1.242a.75.75 0 1 1-1.443.411l-.354-1.243a.97.97 0 0 0-.383-.537.894.894 0 0 0-.676-.167.669.669 0 0 0-.445.279l-1.1 1.605c-.241.352-.112.872.287 1.158a.903.903 0 0 0 .606.182l1.266-.085a.759.759 0 0 1 .798.699.75.75 0 0 1-.699.798l-1.264.084a2.233 2.233 0 0 1-.165.006z" />
        <path d="M17.458 9.607a2.48 2.48 0 0 1-1.451-.47c-1.133-.811-1.411-2.41-.619-3.566a2.505 2.505 0 0 1 3.533-.632c1.133.811 1.411 2.41.619 3.566a2.505 2.505 0 0 1-2.082 1.102zm.007-3.637a1.023 1.023 0 0 0-.84.449 1.093 1.093 0 0 0 .255 1.499c.222.159.49.22.755.174.271-.048.507-.202.667-.434a1.093 1.093 0 0 0-.255-1.499.996.996 0 0 0-.582-.189zm1.456 2.111h.01-.01zM.75 14.5a.75.75 0 0 1-.356-1.411c.068-.037 1.688-.894 3.496-.376a.75.75 0 0 1-.411 1.443c-1.213-.346-2.363.248-2.374.254a.74.74 0 0 1-.355.09zm.806 2.535a.748.748 0 0 1-.479-1.326c.06-.05 1.484-1.208 3.355-1.06a.75.75 0 1 1-.117 1.495c-1.257-.087-2.276.715-2.286.724a.753.753 0 0 1-.473.167zm1.024 2.119a.75.75 0 0 1-.524-1.287c.055-.054 1.379-1.329 3.255-1.343.375.015.752.33.755.745a.75.75 0 0 1-.745.755c-1.257.009-2.208.906-2.217.915a.743.743 0 0 1-.524.215zM23.25 14.5a.744.744 0 0 1-.352-.088c-.012-.006-1.167-.602-2.377-.256a.75.75 0 1 1-.411-1.443c1.809-.516 3.428.34 3.496.376a.75.75 0 0 1-.356 1.411zm-.805 2.537a.75.75 0 0 1-.474-.169c-.01-.008-1.025-.813-2.286-.724a.749.749 0 1 1-.117-1.495c1.872-.148 3.295 1.011 3.355 1.06a.751.751 0 0 1-.478 1.328zm-1.025 2.117a.749.749 0 0 1-.522-.211c-.009-.009-.961-.908-2.22-.917a.75.75 0 0 1 .005-1.5h.005c1.876.014 3.2 1.289 3.255 1.343.296.29.301.765.012 1.061a.745.745 0 0 1-.535.224zM7.598 15.438a.75.75 0 0 1-.75-.75v-1.5a.75.75 0 0 1 1.5 0v1.5a.75.75 0 0 1-.75.75zm8.804 0a.75.75 0 0 1-.75-.75v-1.5a.75.75 0 0 1 1.5 0v1.5a.75.75 0 0 1-.75.75zM11.9 17c-.216 0-.418-.002-.469-.007a.75.75 0 0 1-.666-.826.756.756 0 0 1 .811-.667c.166.008.903-.003.903-.003l.021 1.5c0 .001-.312.003-.6.003z" />
    </g>
</svg>